STARTFONT 2.1
FONT -Monotype-Century Gothic-Bold-R-Normal--17-120-100-100-P-78-iso8859-2
SIZE 12 100 100
FONTBOUNDINGBOX 23 19 -2 -3

STARTPROPERTIES 24
FOUNDRY "Monotype"
FAMILY_NAME "Century Gothic"
WEIGHT_NAME "Bold"
SLANT "R"
SETWIDTH_NAME "Normal"
ADD_STYLE_NAME ""
PIXEL_SIZE 17
POINT_SIZE 120
RESOLUTION_X 100
RESOLUTION_Y 100
SPACING "P"
AVERAGE_WIDTH 78
CHARSET_REGISTRY "iso8859"
CHARSET_ENCODING "2"
FACE_NAME "Century Gothic Bold ISO Latin2"
_DEC_DEVICE_FONTNAMES "PS=centurygothic-b-lat2"
COPYRIGHT "Copyright (c) 1994 Monotype Typography Ltd."
CAP_HEIGHT 13
X_HEIGHT 10
WEIGHT 10
QUAD_WIDTH 10
DEFAULT_CHAR 160
FONT_DESCENT 3
FONT_ASCENT 16
ENDPROPERTIES

CHARS 191

STARTCHAR space
ENCODING 32
SWIDTH 280 0
DWIDTH 5 0
BBX 0 0 0 0
BITMAP
ENDCHAR

STARTCHAR exclam
ENCODING 33
SWIDTH 280 0
DWIDTH 5 0
BBX 3 12 1 0
BITMAP
60
60
60
60
60
60
60
60
00
40
E0
40
ENDCHAR

STARTCHAR quotedbl
ENCODING 34
SWIDTH 360 0
DWIDTH 6 0
BBX 6 4 0 9
BITMAP
CC
CC
CC
48
ENDCHAR

STARTCHAR numbersign
ENCODING 35
SWIDTH 600 0
DWIDTH 10 0
BBX 10 13 0 0
BITMAP
1980
1980
1980
1980
7FC0
7FC0
3300
FF80
FF80
6600
6600
6600
6600
ENDCHAR

STARTCHAR dollar
ENCODING 36
SWIDTH 560 0
DWIDTH 10 0
BBX 8 16 1 -2
BITMAP
18
3E
7F
E3
C0
E0
7C
1E
07
03
C3
C7
FE
7C
18
18
ENDCHAR

STARTCHAR percent
ENCODING 37
SWIDTH 860 0
DWIDTH 15 0
BBX 14 13 1 0
BITMAP
3878
7FB0
CC60
CCC0
7980
3180
0300
0630
0C78
0CCC
18CC
3078
6030
ENDCHAR

STARTCHAR ampersand
ENCODING 38
SWIDTH 680 0
DWIDTH 12 0
BBX 11 12 1 0
BITMAP
3C00
7E00
6600
6600
3C00
3800
7C00
EE80
C7C0
C780
FEE0
7C60
ENDCHAR

STARTCHAR quoteright
ENCODING 39
SWIDTH 280 0
DWIDTH 5 0
BBX 3 4 1 8
BITMAP
60
60
60
C0
ENDCHAR

STARTCHAR parenleft
ENCODING 40
SWIDTH 380 0
DWIDTH 6 0
BBX 4 16 1 -3
BITMAP
30
30
60
60
60
C0
C0
C0
C0
C0
C0
60
60
60
30
30
ENDCHAR

STARTCHAR parenright
ENCODING 41
SWIDTH 380 0
DWIDTH 6 0
BBX 4 16 1 -3
BITMAP
C0
C0
60
60
60
30
30
30
30
30
30
60
60
60
C0
C0
ENDCHAR

STARTCHAR asterisk
ENCODING 42
SWIDTH 440 0
DWIDTH 7 0
BBX 7 6 0 7
BITMAP
50
76
3C
78
DC
14
ENDCHAR

STARTCHAR plus
ENCODING 43
SWIDTH 600 0
DWIDTH 10 0
BBX 8 8 1 2
BITMAP
18
18
18
FF
FF
18
18
18
ENDCHAR

STARTCHAR comma
ENCODING 44
SWIDTH 280 0
DWIDTH 5 0
BBX 4 4 1 -1
BITMAP
20
70
60
C0
ENDCHAR

STARTCHAR minus
ENCODING 45
SWIDTH 600 0
DWIDTH 10 0
BBX 8 2 1 5
BITMAP
FF
FF
ENDCHAR

STARTCHAR period
ENCODING 46
SWIDTH 280 0
DWIDTH 5 0
BBX 3 3 1 0
BITMAP
40
E0
40
ENDCHAR

STARTCHAR slash
ENCODING 47
SWIDTH 460 0
DWIDTH 8 0
BBX 7 15 1 -2
BITMAP
06
06
04
0C
0C
18
18
10
30
30
20
60
40
C0
C0
ENDCHAR

STARTCHAR zero
ENCODING 48
SWIDTH 560 0
DWIDTH 10 0
BBX 8 13 1 0
BITMAP
3C
7E
66
C3
C3
C3
C3
C3
C3
C3
66
7E
3C
ENDCHAR

STARTCHAR one
ENCODING 49
SWIDTH 560 0
DWIDTH 10 0
BBX 5 13 2 0
BITMAP
78
F8
18
18
18
18
18
18
18
18
18
18
18
ENDCHAR

STARTCHAR two
ENCODING 50
SWIDTH 560 0
DWIDTH 10 0
BBX 8 13 1 0
BITMAP
3C
7E
E7
C3
03
07
06
0E
1C
38
70
FF
FF
ENDCHAR

STARTCHAR three
ENCODING 51
SWIDTH 560 0
DWIDTH 10 0
BBX 8 13 1 0
BITMAP
7C
FE
C6
06
0C
18
1C
06
03
C3
E7
7E
3C
ENDCHAR

STARTCHAR four
ENCODING 52
SWIDTH 560 0
DWIDTH 10 0
BBX 8 13 1 0
BITMAP
0E
1E
1E
36
36
66
66
C6
FF
FF
06
06
06
ENDCHAR

STARTCHAR five
ENCODING 53
SWIDTH 560 0
DWIDTH 10 0
BBX 8 13 1 0
BITMAP
3F
3F
30
30
70
7C
7E
67
03
C3
E7
7E
3C
ENDCHAR

STARTCHAR six
ENCODING 54
SWIDTH 560 0
DWIDTH 10 0
BBX 7 13 2 0
BITMAP
0C
0C
18
38
30
70
7C
FE
C6
C6
EE
7C
38
ENDCHAR

STARTCHAR seven
ENCODING 55
SWIDTH 560 0
DWIDTH 10 0
BBX 8 13 1 0
BITMAP
FF
FF
06
0E
0C
1C
18
18
38
30
70
60
60
ENDCHAR

STARTCHAR eight
ENCODING 56
SWIDTH 560 0
DWIDTH 10 0
BBX 9 13 1 0
BITMAP
3E00
7F00
6300
6300
7700
3E00
7F00
E380
C180
C180
E380
7F00
3E00
ENDCHAR

STARTCHAR nine
ENCODING 57
SWIDTH 560 0
DWIDTH 10 0
BBX 7 13 2 0
BITMAP
38
7C
EE
C6
C6
FE
7C
1C
18
38
30
60
60
ENDCHAR

STARTCHAR colon
ENCODING 58
SWIDTH 280 0
DWIDTH 5 0
BBX 3 9 1 0
BITMAP
40
E0
40
00
00
00
40
E0
40
ENDCHAR

STARTCHAR semicolon
ENCODING 59
SWIDTH 280 0
DWIDTH 5 0
BBX 4 11 0 -2
BITMAP
20
70
20
00
00
00
00
20
70
60
C0
ENDCHAR

STARTCHAR less
ENCODING 60
SWIDTH 600 0
DWIDTH 10 0
BBX 8 10 1 1
BITMAP
01
07
1E
78
E0
E0
78
1E
07
01
ENDCHAR

STARTCHAR equal
ENCODING 61
SWIDTH 600 0
DWIDTH 10 0
BBX 8 6 1 3
BITMAP
FF
FF
00
00
FF
FF
ENDCHAR

STARTCHAR greater
ENCODING 62
SWIDTH 600 0
DWIDTH 10 0
BBX 8 10 1 1
BITMAP
80
E0
78
1E
07
07
1E
78
E0
80
ENDCHAR

STARTCHAR question
ENCODING 63
SWIDTH 560 0
DWIDTH 10 0
BBX 7 12 1 0
BITMAP
7C
FE
C6
C6
0E
1C
38
30
00
10
38
10
ENDCHAR

STARTCHAR at
ENCODING 64
SWIDTH 740 0
DWIDTH 13 0
BBX 12 13 0 0
BITMAP
1F80
30C0
4020
CEB0
9F90
B990
B190
B9B0
9FE0
CD80
4060
30C0
1F80
ENDCHAR

STARTCHAR A
ENCODING 65
SWIDTH 740 0
DWIDTH 13 0
BBX 12 12 1 0
BITMAP
0600
0600
0F00
0F00
1980
1980
30C0
3FC0
7FE0
6060
C030
C030
ENDCHAR

STARTCHAR B
ENCODING 66
SWIDTH 580 0
DWIDTH 10 0
BBX 8 12 1 0
BITMAP
F8
FC
C6
C6
C6
FC
FE
C7
C3
C3
FE
FC
ENDCHAR

STARTCHAR C
ENCODING 67
SWIDTH 780 0
DWIDTH 13 0
BBX 11 12 1 0
BITMAP
0F00
3FC0
70E0
6060
C000
C000
C000
C000
6060
70E0
3FC0
0F00
ENDCHAR

STARTCHAR D
ENCODING 68
SWIDTH 700 0
DWIDTH 12 0
BBX 10 12 1 0
BITMAP
FC00
FF00
C380
C180
C0C0
C0C0
C0C0
C0C0
C180
C380
FF00
FC00
ENDCHAR

STARTCHAR E
ENCODING 69
SWIDTH 520 0
DWIDTH 9 0
BBX 7 12 2 0
BITMAP
FE
FE
C0
C0
C0
FE
FE
C0
C0
C0
FE
FE
ENDCHAR

STARTCHAR F
ENCODING 70
SWIDTH 480 0
DWIDTH 8 0
BBX 7 12 1 0
BITMAP
FE
FE
C0
C0
C0
FE
FE
C0
C0
C0
C0
C0
ENDCHAR

STARTCHAR G
ENCODING 71
SWIDTH 840 0
DWIDTH 14 0
BBX 12 12 1 0
BITMAP
0F00
3FC0
70E0
6060
C000
C000
C1F0
C1F0
6060
70E0
3FC0
0F00
ENDCHAR

STARTCHAR H
ENCODING 72
SWIDTH 680 0
DWIDTH 12 0
BBX 9 12 2 0
BITMAP
C180
C180
C180
C180
C180
FF80
FF80
C180
C180
C180
C180
C180
ENDCHAR

STARTCHAR I
ENCODING 73
SWIDTH 280 0
DWIDTH 5 0
BBX 2 12 2 0
BITMAP
C0
C0
C0
C0
C0
C0
C0
C0
C0
C0
C0
C0
ENDCHAR

STARTCHAR J
ENCODING 74
SWIDTH 480 0
DWIDTH 8 0
BBX 6 12 1 0
BITMAP
0C
0C
0C
0C
0C
0C
0C
0C
4C
CC
FC
78
ENDCHAR

STARTCHAR K
ENCODING 75
SWIDTH 620 0
DWIDTH 11 0
BBX 9 12 2 0
BITMAP
C300
C700
CE00
DC00
F800
F000
F000
F800
DC00
CE00
C700
C380
ENDCHAR

STARTCHAR L
ENCODING 76
SWIDTH 440 0
DWIDTH 7 0
BBX 6 12 1 0
BITMAP
C0
C0
C0
C0
C0
C0
C0
C0
C0
C0
FC
FC
ENDCHAR

STARTCHAR M
ENCODING 77
SWIDTH 900 0
DWIDTH 15 0
BBX 14 12 1 0
BITMAP
3030
3030
3870
3870
6CD8
6CD8
6CD8
6CD8
C78C
C78C
C30C
C30C
ENDCHAR

STARTCHAR N
ENCODING 78
SWIDTH 740 0
DWIDTH 12 0
BBX 9 12 2 0
BITMAP
E180
F180
F180
D980
D980
CD80
CD80
C780
C780
C380
C380
C180
ENDCHAR

STARTCHAR O
ENCODING 79
SWIDTH 840 0
DWIDTH 14 0
BBX 12 12 1 0
BITMAP
0F00
3FC0
70E0
6060
C030
C030
C030
C030
6060
70E0
3FC0
0F00
ENDCHAR

STARTCHAR P
ENCODING 80
SWIDTH 560 0
DWIDTH 10 0
BBX 8 12 2 0
BITMAP
FC
FE
C7
C3
C7
FE
FC
C0
C0
C0
C0
C0
ENDCHAR

STARTCHAR Q
ENCODING 81
SWIDTH 840 0
DWIDTH 14 0
BBX 13 13 1 -1
BITMAP
0F00
3FC0
70E0
6060
C030
C030
C030
C3B0
61B0
70E0
3FE0
0F30
0038
ENDCHAR

STARTCHAR R
ENCODING 82
SWIDTH 580 0
DWIDTH 11 0
BBX 8 12 2 0
BITMAP
FC
FE
C3
C3
C3
FE
FC
CC
CC
C6
C6
C3
ENDCHAR

STARTCHAR S
ENCODING 83
SWIDTH 520 0
DWIDTH 9 0
BBX 7 12 1 0
BITMAP
3C
7E
C6
C0
E0
70
3C
0E
C6
C6
7C
38
ENDCHAR

STARTCHAR T
ENCODING 84
SWIDTH 420 0
DWIDTH 7 0
BBX 6 12 1 0
BITMAP
FC
FC
30
30
30
30
30
30
30
30
30
30
ENDCHAR

STARTCHAR U
ENCODING 85
SWIDTH 640 0
DWIDTH 12 0
BBX 9 12 2 0
BITMAP
C180
C180
C180
C180
C180
C180
C180
C180
C180
E380
7F00
3E00
ENDCHAR

STARTCHAR V
ENCODING 86
SWIDTH 700 0
DWIDTH 12 0
BBX 10 12 1 0
BITMAP
C0C0
C0C0
C0C0
6180
6180
6180
3300
3300
3300
1E00
1E00
0C00
ENDCHAR

STARTCHAR W
ENCODING 87
SWIDTH 900 0
DWIDTH 15 0
BBX 14 12 1 0
BITMAP
C30C
C30C
C78C
C78C
6CD8
6CD8
6CD8
6CD8
3870
3870
3030
3030
ENDCHAR

STARTCHAR X
ENCODING 88
SWIDTH 680 0
DWIDTH 10 0
BBX 9 12 1 0
BITMAP
C180
6300
6300
3600
3E00
1C00
3E00
3600
6300
6300
C180
C180
ENDCHAR

STARTCHAR Y
ENCODING 89
SWIDTH 620 0
DWIDTH 11 0
BBX 10 12 1 0
BITMAP
C0C0
6180
6180
3300
3F00
1E00
0C00
0C00
0C00
0C00
0C00
0C00
ENDCHAR

STARTCHAR Z
ENCODING 90
SWIDTH 500 0
DWIDTH 9 0
BBX 8 12 1 0
BITMAP
FF
FF
06
0C
1C
18
30
70
60
C0
FF
FF
ENDCHAR

STARTCHAR bracketleft
ENCODING 91
SWIDTH 320 0
DWIDTH 5 0
BBX 4 15 1 -3
BITMAP
F0
F0
C0
C0
C0
C0
C0
C0
C0
C0
C0
C0
C0
F0
F0
ENDCHAR

STARTCHAR backslash
ENCODING 92
SWIDTH 640 0
DWIDTH 11 0
BBX 7 15 2 -2
BITMAP
C0
C0
40
60
60
30
30
10
18
18
08
0C
04
06
06
ENDCHAR

STARTCHAR bracketright
ENCODING 93
SWIDTH 320 0
DWIDTH 5 0
BBX 4 15 0 -3
BITMAP
F0
F0
30
30
30
30
30
30
30
30
30
30
30
F0
F0
ENDCHAR

STARTCHAR asciicircum
ENCODING 94
SWIDTH 600 0
DWIDTH 10 0
BBX 8 9 1 4
BITMAP
18
18
3C
3C
66
66
66
C3
C3
ENDCHAR

STARTCHAR underscore
ENCODING 95
SWIDTH 500 0
DWIDTH 9 0
BBX 9 1 0 -2
BITMAP
FF80
ENDCHAR

STARTCHAR quoteleft
ENCODING 96
SWIDTH 280 0
DWIDTH 5 0
BBX 3 4 1 8
BITMAP
60
C0
C0
C0
ENDCHAR

STARTCHAR a
ENCODING 97
SWIDTH 660 0
DWIDTH 11 0
BBX 9 9 1 0
BITMAP
1D80
7F80
6380
C180
C180
C180
6380
7F80
1D80
ENDCHAR

STARTCHAR b
ENCODING 98
SWIDTH 660 0
DWIDTH 11 0
BBX 9 12 1 0
BITMAP
C000
C000
C000
DC00
FF00
E300
C180
C180
C180
E300
FF00
DC00
ENDCHAR

STARTCHAR c
ENCODING 99
SWIDTH 640 0
DWIDTH 11 0
BBX 9 9 1 0
BITMAP
1E00
7F80
6180
C000
C000
C000
6180
7F80
1E00
ENDCHAR

STARTCHAR d
ENCODING 100
SWIDTH 660 0
DWIDTH 11 0
BBX 9 12 1 0
BITMAP
0180
0180
0180
1D80
7F80
6380
C180
C180
C180
6380
7F80
1D80
ENDCHAR

STARTCHAR e
ENCODING 101
SWIDTH 640 0
DWIDTH 11 0
BBX 9 9 1 0
BITMAP
1E00
7F00
6180
FF80
FF80
C000
6180
7F80
1E00
ENDCHAR

STARTCHAR f
ENCODING 102
SWIDTH 280 0
DWIDTH 5 0
BBX 5 12 0 0
BITMAP
38
78
60
F8
F8
60
60
60
60
60
60
60
ENDCHAR

STARTCHAR g
ENCODING 103
SWIDTH 660 0
DWIDTH 11 0
BBX 9 12 1 -3
BITMAP
1D80
7F80
6380
C180
C180
C180
6380
7F80
1D80
C380
7F00
3E00
ENDCHAR

STARTCHAR h
ENCODING 104
SWIDTH 600 0
DWIDTH 10 0
BBX 8 12 1 0
BITMAP
C0
C0
C0
DC
FE
E7
C3
C3
C3
C3
C3
C3
ENDCHAR

STARTCHAR i
ENCODING 105
SWIDTH 240 0
DWIDTH 4 0
BBX 2 12 1 0
BITMAP
C0
C0
00
C0
C0
C0
C0
C0
C0
C0
C0
C0
ENDCHAR

STARTCHAR j
ENCODING 106
SWIDTH 260 0
DWIDTH 4 0
BBX 4 15 -1 -3
BITMAP
30
30
00
30
30
30
30
30
30
30
30
30
30
F0
E0
ENDCHAR

STARTCHAR k
ENCODING 107
SWIDTH 580 0
DWIDTH 10 0
BBX 9 12 1 0
BITMAP
C000
C000
C000
C700
CE00
DC00
F800
F800
DC00
CE00
C700
C380
ENDCHAR

STARTCHAR l
ENCODING 108
SWIDTH 240 0
DWIDTH 4 0
BBX 2 12 1 0
BITMAP
C0
C0
C0
C0
C0
C0
C0
C0
C0
C0
C0
C0
ENDCHAR

STARTCHAR m
ENCODING 109
SWIDTH 940 0
DWIDTH 16 0
BBX 14 9 1 0
BITMAP
DC70
FEF8
E79C
C30C
C30C
C30C
C30C
C30C
C30C
ENDCHAR

STARTCHAR n
ENCODING 110
SWIDTH 600 0
DWIDTH 10 0
BBX 8 9 1 0
BITMAP
DC
FE
E7
C3
C3
C3
C3
C3
C3
ENDCHAR

STARTCHAR o
ENCODING 111
SWIDTH 640 0
DWIDTH 11 0
BBX 9 9 1 0
BITMAP
1C00
7F00
6300
C180
C180
C180
6300
7F00
1C00
ENDCHAR

STARTCHAR p
ENCODING 112
SWIDTH 660 0
DWIDTH 11 0
BBX 9 12 1 -3
BITMAP
DC00
FF00
E300
C180
C180
C180
E300
FF00
DC00
C000
C000
C000
ENDCHAR

STARTCHAR q
ENCODING 113
SWIDTH 660 0
DWIDTH 11 0
BBX 9 12 1 -3
BITMAP
1D80
7F80
6380
C180
C180
C180
6380
7F80
1D80
0180
0180
0180
ENDCHAR

STARTCHAR r
ENCODING 114
SWIDTH 320 0
DWIDTH 6 0
BBX 5 9 1 0
BITMAP
D8
F8
E0
C0
C0
C0
C0
C0
C0
ENDCHAR

STARTCHAR s
ENCODING 115
SWIDTH 440 0
DWIDTH 8 0
BBX 6 9 1 0
BITMAP
78
FC
CC
E0
78
1C
CC
FC
78
ENDCHAR

STARTCHAR t
ENCODING 116
SWIDTH 300 0
DWIDTH 4 0
BBX 4 12 0 0
BITMAP
60
60
60
F0
F0
60
60
60
60
60
60
60
ENDCHAR

STARTCHAR u
ENCODING 117
SWIDTH 600 0
DWIDTH 10 0
BBX 8 9 1 0
BITMAP
C3
C3
C3
C3
C3
C3
E7
7E
3C
ENDCHAR

STARTCHAR v
ENCODING 118
SWIDTH 560 0
DWIDTH 10 0
BBX 10 9 0 0
BITMAP
C0C0
C0C0
6180
6180
3300
3300
1E00
1E00
0C00
ENDCHAR

STARTCHAR w
ENCODING 119
SWIDTH 800 0
DWIDTH 14 0
BBX 14 9 0 0
BITMAP
C30C
C30C
6318
6798
37B0
3CF0
3CF0
1860
1860
ENDCHAR

STARTCHAR x
ENCODING 120
SWIDTH 560 0
DWIDTH 8 0
BBX 8 9 0 0
BITMAP
C3
66
66
3C
18
3C
66
66
C3
ENDCHAR

STARTCHAR y
ENCODING 121
SWIDTH 580 0
DWIDTH 10 0
BBX 8 12 1 -3
BITMAP
C3
C3
C3
66
66
66
3C
3C
18
30
30
60
ENDCHAR

STARTCHAR z
ENCODING 122
SWIDTH 460 0
DWIDTH 9 0
BBX 7 9 1 0
BITMAP
FE
FE
0C
18
18
30
60
FE
FE
ENDCHAR

STARTCHAR braceleft
ENCODING 123
SWIDTH 340 0
DWIDTH 6 0
BBX 6 15 0 -3
BITMAP
1C
3C
30
30
30
30
70
E0
70
30
30
30
30
3C
1C
ENDCHAR

STARTCHAR bar
ENCODING 124
SWIDTH 600 0
DWIDTH 10 0
BBX 1 16 5 -3
BITMAP
80
80
80
80
80
80
80
80
80
80
80
80
80
80
80
80
ENDCHAR

STARTCHAR braceright
ENCODING 125
SWIDTH 340 0
DWIDTH 6 0
BBX 6 15 0 -3
BITMAP
E0
F0
30
30
30
30
38
1C
38
30
30
30
30
F0
E0
ENDCHAR

STARTCHAR asciitilde
ENCODING 126
SWIDTH 600 0
DWIDTH 10 0
BBX 8 3 1 5
BITMAP
79
FF
8E
ENDCHAR

STARTCHAR space
ENCODING 160
SWIDTH 280 0
DWIDTH 5 0
BBX 0 0 0 0
BITMAP
ENDCHAR

STARTCHAR Aogonek
ENCODING 161
SWIDTH 740 0
DWIDTH 13 0
BBX 12 15 1 -3
BITMAP
0600
0600
0F00
0F00
1980
1980
30C0
3FC0
7FE0
6060
C030
C030
0060
0070
0030
ENDCHAR

STARTCHAR breve
ENCODING 162
SWIDTH 480 0
DWIDTH 8 0
BBX 6 3 1 11
BITMAP
C4
FC
78
ENDCHAR

STARTCHAR Lslash
ENCODING 163
SWIDTH 480 0
DWIDTH 7 0
BBX 7 12 0 0
BITMAP
60
60
60
68
78
70
E0
E0
60
60
7E
7E
ENDCHAR

STARTCHAR currency
ENCODING 164
SWIDTH 600 0
DWIDTH 10 0
BBX 9 9 1 2
BITMAP
5D00
FF80
6300
C180
C180
C180
6300
FF80
5D00
ENDCHAR

STARTCHAR Lcaron
ENCODING 165
SWIDTH 440 0
DWIDTH 7 0
BBX 6 12 1 0
BITMAP
D8
D8
C8
D0
C0
C0
C0
C0
C0
C0
FC
FC
ENDCHAR

STARTCHAR Sacute
ENCODING 166
SWIDTH 520 0
DWIDTH 9 0
BBX 7 16 1 0
BITMAP
0E
0C
18
00
3C
7E
C6
C0
E0
70
3C
0E
C6
C6
7C
38
ENDCHAR

STARTCHAR section
ENCODING 167
SWIDTH 560 0
DWIDTH 10 0
BBX 8 16 1 -3
BITMAP
3C
7E
66
70
38
7C
EE
C7
E3
77
3E
1C
0E
66
7E
3C
ENDCHAR

STARTCHAR dieresis
ENCODING 168
SWIDTH 500 0
DWIDTH 9 0
BBX 6 2 1 11
BITMAP
CC
CC
ENDCHAR

STARTCHAR Scaron
ENCODING 169
SWIDTH 520 0
DWIDTH 9 0
BBX 7 16 1 0
BITMAP
66
3C
18
00
3C
7E
C6
C0
E0
70
3C
0E
C6
C6
7C
38
ENDCHAR

STARTCHAR Scommaaccent
ENCODING 170
SWIDTH 520 0
DWIDTH 9 0
BBX 7 15 1 -3
BITMAP
3C
7E
C6
C0
E0
70
3C
0E
C6
C6
7C
38
00
30
60
ENDCHAR

STARTCHAR Tcaron
ENCODING 171
SWIDTH 420 0
DWIDTH 7 0
BBX 6 16 1 0
BITMAP
CC
78
30
00
FC
FC
30
30
30
30
30
30
30
30
30
30
ENDCHAR

STARTCHAR Zacute
ENCODING 172
SWIDTH 500 0
DWIDTH 9 0
BBX 8 16 1 0
BITMAP
0E
0C
18
00
FF
FF
06
0C
1C
18
30
70
60
C0
FF
FF
ENDCHAR

STARTCHAR hyphen
ENCODING 173
SWIDTH 420 0
DWIDTH 7 0
BBX 5 2 1 4
BITMAP
F8
F8
ENDCHAR

STARTCHAR Zcaron
ENCODING 174
SWIDTH 500 0
DWIDTH 9 0
BBX 8 16 1 0
BITMAP
66
3C
18
00
FF
FF
06
0C
1C
18
30
70
60
C0
FF
FF
ENDCHAR

STARTCHAR Zdotaccent
ENCODING 175
SWIDTH 500 0
DWIDTH 9 0
BBX 8 15 1 0
BITMAP
18
18
00
FF
FF
06
0C
1C
18
30
70
60
C0
FF
FF
ENDCHAR

STARTCHAR degree
ENCODING 176
SWIDTH 400 0
DWIDTH 7 0
BBX 6 6 1 7
BITMAP
78
CC
84
84
CC
78
ENDCHAR

STARTCHAR aogonek
ENCODING 177
SWIDTH 660 0
DWIDTH 11 0
BBX 9 12 1 -3
BITMAP
1D80
7F80
6380
C180
C180
C180
6380
7F80
1D80
0300
0380
0180
ENDCHAR

STARTCHAR ogonek
ENCODING 178
SWIDTH 340 0
DWIDTH 6 0
BBX 3 3 2 -3
BITMAP
C0
E0
60
ENDCHAR

STARTCHAR lslash
ENCODING 179
SWIDTH 320 0
DWIDTH 4 0
BBX 4 12 0 0
BITMAP
60
60
60
70
70
60
E0
E0
60
60
60
60
ENDCHAR

STARTCHAR acute
ENCODING 180
SWIDTH 420 0
DWIDTH 7 0
BBX 4 3 2 11
BITMAP
70
60
C0
ENDCHAR

STARTCHAR lcaron
ENCODING 181
SWIDTH 315 0
DWIDTH 5 0
BBX 5 12 1 0
BITMAP
D8
D8
E0
C0
C0
C0
C0
C0
C0
C0
C0
C0
ENDCHAR

STARTCHAR sacute
ENCODING 182
SWIDTH 440 0
DWIDTH 8 0
BBX 6 13 1 0
BITMAP
1C
18
30
00
78
FC
CC
E0
78
1C
CC
FC
78
ENDCHAR

STARTCHAR caron
ENCODING 183
SWIDTH 540 0
DWIDTH 9 0
BBX 6 3 2 11
BITMAP
CC
78
30
ENDCHAR

STARTCHAR commaaccent
ENCODING 184
SWIDTH 333 0
DWIDTH 6 0
BBX 3 2 2 -3
BITMAP
60
C0
ENDCHAR

STARTCHAR scaron
ENCODING 185
SWIDTH 440 0
DWIDTH 8 0
BBX 6 13 1 0
BITMAP
CC
78
30
00
78
FC
CC
E0
78
1C
CC
FC
78
ENDCHAR

STARTCHAR scommaaccent
ENCODING 186
SWIDTH 440 0
DWIDTH 8 0
BBX 6 12 1 -3
BITMAP
78
FC
CC
E0
78
1C
CC
FC
78
00
30
60
ENDCHAR

STARTCHAR tcaron
ENCODING 187
SWIDTH 418 0
DWIDTH 5 0
BBX 6 12 0 0
BITMAP
6C
6C
78
F0
F0
60
60
60
60
60
60
60
ENDCHAR

STARTCHAR zacute
ENCODING 188
SWIDTH 460 0
DWIDTH 9 0
BBX 7 13 1 0
BITMAP
0E
0C
18
00
FE
FE
0C
18
18
30
60
FE
FE
ENDCHAR

STARTCHAR hungarumlaut
ENCODING 189
SWIDTH 700 0
DWIDTH 12 0
BBX 8 3 3 11
BITMAP
77
66
CC
ENDCHAR

STARTCHAR zcaron
ENCODING 190
SWIDTH 460 0
DWIDTH 9 0
BBX 7 13 1 0
BITMAP
66
3C
18
00
FE
FE
0C
18
18
30
60
FE
FE
ENDCHAR

STARTCHAR zdotaccent
ENCODING 191
SWIDTH 460 0
DWIDTH 9 0
BBX 7 12 1 0
BITMAP
18
18
00
FE
FE
0C
18
18
30
60
FE
FE
ENDCHAR

STARTCHAR Racute
ENCODING 192
SWIDTH 580 0
DWIDTH 11 0
BBX 8 16 2 0
BITMAP
0E
0C
18
00
FC
FE
C3
C3
C3
FE
FC
CC
CC
C6
C6
C3
ENDCHAR

STARTCHAR Aacute
ENCODING 193
SWIDTH 740 0
DWIDTH 13 0
BBX 12 16 1 0
BITMAP
0380
0300
0600
0000
0600
0600
0F00
0F00
1980
1980
30C0
3FC0
7FE0
6060
C030
C030
ENDCHAR

STARTCHAR Acircumflex
ENCODING 194
SWIDTH 740 0
DWIDTH 13 0
BBX 12 16 1 0
BITMAP
0600
0F00
1980
0000
0600
0600
0F00
0F00
1980
1980
30C0
3FC0
7FE0
6060
C030
C030
ENDCHAR

STARTCHAR Abreve
ENCODING 195
SWIDTH 740 0
DWIDTH 13 0
BBX 12 16 1 0
BITMAP
30C0
1F80
0F00
0000
0600
0600
0F00
0F00
1980
1980
30C0
3FC0
7FE0
6060
C030
C030
ENDCHAR

STARTCHAR Adieresis
ENCODING 196
SWIDTH 740 0
DWIDTH 13 0
BBX 12 16 1 0
BITMAP
1980
1980
0000
0000
0600
0600
0F00
0F00
1980
1980
30C0
3FC0
7FE0
6060
C030
C030
ENDCHAR

STARTCHAR Lacute
ENCODING 197
SWIDTH 440 0
DWIDTH 7 0
BBX 6 16 1 0
BITMAP
38
30
60
00
C0
C0
C0
C0
C0
C0
C0
C0
C0
C0
FC
FC
ENDCHAR

STARTCHAR Cacute
ENCODING 198
SWIDTH 780 0
DWIDTH 13 0
BBX 11 16 1 0
BITMAP
0380
0300
0600
0000
0F00
3FC0
70E0
6060
C000
C000
C000
C000
6060
70E0
3FC0
0F00
ENDCHAR

STARTCHAR Ccedilla
ENCODING 199
SWIDTH 780 0
DWIDTH 13 0
BBX 11 15 1 -3
BITMAP
0F00
3FC0
70E0
6060
C000
C000
C000
C000
6060
70E0
3FC0
0F00
0600
0300
0E00
ENDCHAR

STARTCHAR Ccaron
ENCODING 200
SWIDTH 780 0
DWIDTH 13 0
BBX 11 16 1 0
BITMAP
1980
0F00
0600
0000
0F00
3FC0
70E0
6060
C000
C000
C000
C000
6060
70E0
3FC0
0F00
ENDCHAR

STARTCHAR Eacute
ENCODING 201
SWIDTH 520 0
DWIDTH 9 0
BBX 7 16 2 0
BITMAP
0E
0C
18
00
FE
FE
C0
C0
C0
FE
FE
C0
C0
C0
FE
FE
ENDCHAR

STARTCHAR Eogonek
ENCODING 202
SWIDTH 520 0
DWIDTH 9 0
BBX 7 15 2 -3
BITMAP
FE
FE
C0
C0
C0
FE
FE
C0
C0
C0
FE
FE
0C
0E
06
ENDCHAR

STARTCHAR Edieresis
ENCODING 203
SWIDTH 520 0
DWIDTH 9 0
BBX 7 15 2 0
BITMAP
66
66
00
FE
FE
C0
C0
C0
FE
FE
C0
C0
C0
FE
FE
ENDCHAR

STARTCHAR Ecaron
ENCODING 204
SWIDTH 520 0
DWIDTH 9 0
BBX 7 16 2 0
BITMAP
66
3C
18
00
FE
FE
C0
C0
C0
FE
FE
C0
C0
C0
FE
FE
ENDCHAR

STARTCHAR Iacute
ENCODING 205
SWIDTH 280 0
DWIDTH 5 0
BBX 4 16 2 0
BITMAP
70
60
C0
00
C0
C0
C0
C0
C0
C0
C0
C0
C0
C0
C0
C0
ENDCHAR

STARTCHAR Icircumflex
ENCODING 206
SWIDTH 280 0
DWIDTH 5 0
BBX 6 16 0 0
BITMAP
30
78
CC
00
30
30
30
30
30
30
30
30
30
30
30
30
ENDCHAR

STARTCHAR Dcaron
ENCODING 207
SWIDTH 700 0
DWIDTH 12 0
BBX 10 16 1 0
BITMAP
6600
3C00
1800
0000
FC00
FF00
C380
C180
C0C0
C0C0
C0C0
C0C0
C180
C380
FF00
FC00
ENDCHAR

STARTCHAR Dcroat
ENCODING 208
SWIDTH 742 0
DWIDTH 12 0
BBX 11 12 0 0
BITMAP
7E00
7F80
61C0
60C0
6060
FC60
FC60
6060
60C0
61C0
7F80
7E00
ENDCHAR

STARTCHAR Nacute
ENCODING 209
SWIDTH 740 0
DWIDTH 12 0
BBX 9 16 2 0
BITMAP
0700
0600
0C00
0000
E180
F180
F180
D980
D980
CD80
CD80
C780
C780
C380
C380
C180
ENDCHAR

STARTCHAR Ncaron
ENCODING 210
SWIDTH 740 0
DWIDTH 12 0
BBX 9 16 2 0
BITMAP
3300
1E00
0C00
0000
E180
F180
F180
D980
D980
CD80
CD80
C780
C780
C380
C380
C180
ENDCHAR

STARTCHAR Oacute
ENCODING 211
SWIDTH 840 0
DWIDTH 14 0
BBX 12 16 1 0
BITMAP
0380
0300
0600
0000
0F00
3FC0
70E0
6060
C030
C030
C030
C030
6060
70E0
3FC0
0F00
ENDCHAR

STARTCHAR Ocircumflex
ENCODING 212
SWIDTH 840 0
DWIDTH 14 0
BBX 12 16 1 0
BITMAP
0600
0F00
1980
0000
0F00
3FC0
70E0
6060
C030
C030
C030
C030
6060
70E0
3FC0
0F00
ENDCHAR

STARTCHAR Ohungarumlaut
ENCODING 213
SWIDTH 840 0
DWIDTH 14 0
BBX 12 16 1 0
BITMAP
0EE0
0CC0
1980
0000
0F00
3FC0
70E0
6060
C030
C030
C030
C030
6060
70E0
3FC0
0F00
ENDCHAR

STARTCHAR Odieresis
ENCODING 214
SWIDTH 840 0
DWIDTH 14 0
BBX 12 15 1 0
BITMAP
1980
1980
0000
0F00
3FC0
70E0
6060
C030
C030
C030
C030
6060
70E0
3FC0
0F00
ENDCHAR

STARTCHAR multiply
ENCODING 215
SWIDTH 600 0
DWIDTH 10 0
BBX 9 8 1 2
BITMAP
C200
6700
3E00
1C00
3C00
7600
E300
4180
ENDCHAR

STARTCHAR Rcaron
ENCODING 216
SWIDTH 580 0
DWIDTH 11 0
BBX 8 16 2 0
BITMAP
CC
78
30
00
FC
FE
C3
C3
C3
FE
FC
CC
CC
C6
C6
C3
ENDCHAR

STARTCHAR Uring
ENCODING 217
SWIDTH 640 0
DWIDTH 12 0
BBX 9 16 2 0
BITMAP
1800
2400
2400
1800
C180
C180
C180
C180
C180
C180
C180
C180
C180
E380
7F00
3E00
ENDCHAR

STARTCHAR Uacute
ENCODING 218
SWIDTH 640 0
DWIDTH 12 0
BBX 9 16 2 0
BITMAP
0E00
0C00
1800
0000
C180
C180
C180
C180
C180
C180
C180
C180
C180
E380
7F00
3E00
ENDCHAR

STARTCHAR Uhungarumlaut
ENCODING 219
SWIDTH 640 0
DWIDTH 12 0
BBX 10 16 2 0
BITMAP
1DC0
1980
3300
0000
C180
C180
C180
C180
C180
C180
C180
C180
C180
E380
7F00
3E00
ENDCHAR

STARTCHAR Udieresis
ENCODING 220
SWIDTH 640 0
DWIDTH 12 0
BBX 9 15 2 0
BITMAP
6300
6300
0000
C180
C180
C180
C180
C180
C180
C180
C180
C180
E380
7F00
3E00
ENDCHAR

STARTCHAR Yacute
ENCODING 221
SWIDTH 620 0
DWIDTH 11 0
BBX 10 16 1 0
BITMAP
0700
0600
0C00
0000
C0C0
6180
6180
3300
3F00
1E00
0C00
0C00
0C00
0C00
0C00
0C00
ENDCHAR

STARTCHAR Tcommaaccent
ENCODING 222
SWIDTH 420 0
DWIDTH 7 0
BBX 6 15 1 -3
BITMAP
FC
FC
30
30
30
30
30
30
30
30
30
30
00
30
60
ENDCHAR

STARTCHAR germandbls
ENCODING 223
SWIDTH 600 0
DWIDTH 10 0
BBX 8 12 1 0
BITMAP
3C
7E
66
C6
CC
CE
C6
C3
C3
C7
DE
DC
ENDCHAR

STARTCHAR racute
ENCODING 224
SWIDTH 320 0
DWIDTH 5 0
BBX 5 13 1 0
BITMAP
38
30
60
00
D8
F8
E0
C0
C0
C0
C0
C0
C0
ENDCHAR

STARTCHAR aacute
ENCODING 225
SWIDTH 660 0
DWIDTH 11 0
BBX 9 13 1 0
BITMAP
0E00
0C00
1800
0000
1D80
7F80
6380
C180
C180
C180
6380
7F80
1D80
ENDCHAR

STARTCHAR acircumflex
ENCODING 226
SWIDTH 660 0
DWIDTH 11 0
BBX 9 13 1 0
BITMAP
0C00
1E00
3300
0000
1D80
7F80
6380
C180
C180
C180
6380
7F80
1D80
ENDCHAR

STARTCHAR abreve
ENCODING 227
SWIDTH 660 0
DWIDTH 11 0
BBX 9 13 1 0
BITMAP
3300
3F00
1E00
0000
1D80
7F80
6380
C180
C180
C180
6380
7F80
1D80
ENDCHAR

STARTCHAR adieresis
ENCODING 228
SWIDTH 660 0
DWIDTH 11 0
BBX 9 13 1 0
BITMAP
3300
3300
0000
0000
1D80
7F80
6380
C180
C180
C180
6380
7F80
1D80
ENDCHAR

STARTCHAR lacute
ENCODING 229
SWIDTH 240 0
DWIDTH 4 0
BBX 4 16 1 0
BITMAP
70
60
C0
00
C0
C0
C0
C0
C0
C0
C0
C0
C0
C0
C0
C0
ENDCHAR

STARTCHAR cacute
ENCODING 230
SWIDTH 640 0
DWIDTH 11 0
BBX 9 13 1 0
BITMAP
0700
0600
0C00
0000
1E00
7F80
6180
C000
C000
C000
6180
7F80
1E00
ENDCHAR

STARTCHAR ccedilla
ENCODING 231
SWIDTH 640 0
DWIDTH 11 0
BBX 9 12 1 -3
BITMAP
1E00
7F80
6180
C000
C000
C000
6180
7F80
1E00
0C00
0600
1C00
ENDCHAR

STARTCHAR ccaron
ENCODING 232
SWIDTH 640 0
DWIDTH 11 0
BBX 9 13 1 0
BITMAP
3300
1E00
0C00
0000
1E00
7F80
6180
C000
C000
C000
6180
7F80
1E00
ENDCHAR

STARTCHAR eacute
ENCODING 233
SWIDTH 640 0
DWIDTH 11 0
BBX 9 13 1 0
BITMAP
0E00
0C00
1800
0000
1E00
7F00
6180
FF80
FF80
C000
6180
7F80
1E00
ENDCHAR

STARTCHAR eogonek
ENCODING 234
SWIDTH 640 0
DWIDTH 11 0
BBX 9 12 1 -3
BITMAP
1E00
7F00
6180
FF80
FF80
C000
6180
7F80
1E00
1800
1C00
0C00
ENDCHAR

STARTCHAR edieresis
ENCODING 235
SWIDTH 640 0
DWIDTH 11 0
BBX 9 13 1 0
BITMAP
3300
3300
0000
0000
1E00
7F00
6180
FF80
FF80
C000
6180
7F80
1E00
ENDCHAR

STARTCHAR ecaron
ENCODING 236
SWIDTH 640 0
DWIDTH 11 0
BBX 9 13 1 0
BITMAP
3300
1E00
0C00
0000
1E00
7F00
6180
FF80
FF80
C000
6180
7F80
1E00
ENDCHAR

STARTCHAR iacute
ENCODING 237
SWIDTH 240 0
DWIDTH 4 0
BBX 4 13 0 0
BITMAP
70
60
C0
00
60
60
60
60
60
60
60
60
60
ENDCHAR

STARTCHAR icircumflex
ENCODING 238
SWIDTH 240 0
DWIDTH 4 0
BBX 6 13 -1 0
BITMAP
30
78
CC
00
30
30
30
30
30
30
30
30
30
ENDCHAR

STARTCHAR dcaron
ENCODING 239
SWIDTH 721 0
DWIDTH 12 0
BBX 12 12 1 0
BITMAP
01B0
01B0
01E0
1D80
7F80
6380
C180
C180
C180
6380
7F80
1D80
ENDCHAR

STARTCHAR dcroat
ENCODING 240
SWIDTH 660 0
DWIDTH 11 0
BBX 10 12 1 0
BITMAP
0180
0FC0
0180
1D80
7F80
6380
C180
C180
C180
6380
7F80
1D80
ENDCHAR

STARTCHAR nacute
ENCODING 241
SWIDTH 600 0
DWIDTH 10 0
BBX 8 13 1 0
BITMAP
1C
18
30
00
DC
FE
E7
C3
C3
C3
C3
C3
C3
ENDCHAR

STARTCHAR ncaron
ENCODING 242
SWIDTH 600 0
DWIDTH 10 0
BBX 8 13 1 0
BITMAP
66
3C
18
00
DC
FE
E7
C3
C3
C3
C3
C3
C3
ENDCHAR

STARTCHAR oacute
ENCODING 243
SWIDTH 640 0
DWIDTH 11 0
BBX 9 13 1 0
BITMAP
0E00
0C00
1800
0000
1C00
7F00
6300
C180
C180
C180
6300
7F00
1C00
ENDCHAR

STARTCHAR ocircumflex
ENCODING 244
SWIDTH 640 0
DWIDTH 11 0
BBX 9 13 1 0
BITMAP
0C00
1E00
3300
0000
1C00
7F00
6300
C180
C180
C180
6300
7F00
1C00
ENDCHAR

STARTCHAR ohungarumlaut
ENCODING 245
SWIDTH 640 0
DWIDTH 11 0
BBX 10 13 1 0
BITMAP
1DC0
1980
3300
0000
1C00
7F00
6300
C180
C180
C180
6300
7F00
1C00
ENDCHAR

STARTCHAR odieresis
ENCODING 246
SWIDTH 640 0
DWIDTH 11 0
BBX 9 13 1 0
BITMAP
3300
3300
0000
0000
1C00
7F00
6300
C180
C180
C180
6300
7F00
1C00
ENDCHAR

STARTCHAR divide
ENCODING 247
SWIDTH 600 0
DWIDTH 10 0
BBX 9 10 1 1
BITMAP
1C00
1C00
1C00
0000
FF80
FF80
0000
1C00
1C00
1C00
ENDCHAR

STARTCHAR rcaron
ENCODING 248
SWIDTH 320 0
DWIDTH 6 0
BBX 6 13 1 0
BITMAP
CC
78
30
00
D8
F8
E0
C0
C0
C0
C0
C0
C0
ENDCHAR

STARTCHAR uring
ENCODING 249
SWIDTH 600 0
DWIDTH 10 0
BBX 8 14 1 0
BITMAP
18
24
24
18
00
C3
C3
C3
C3
C3
C3
E7
7E
3C
ENDCHAR

STARTCHAR uacute
ENCODING 250
SWIDTH 600 0
DWIDTH 10 0
BBX 8 13 1 0
BITMAP
1C
18
30
00
C3
C3
C3
C3
C3
C3
E7
7E
3C
ENDCHAR

STARTCHAR uhungarumlaut
ENCODING 251
SWIDTH 600 0
DWIDTH 10 0
BBX 9 13 1 0
BITMAP
3B80
3300
6600
0000
C300
C300
C300
C300
C300
C300
E700
7E00
3C00
ENDCHAR

STARTCHAR udieresis
ENCODING 252
SWIDTH 600 0
DWIDTH 10 0
BBX 8 13 1 0
BITMAP
66
66
00
00
C3
C3
C3
C3
C3
C3
E7
7E
3C
ENDCHAR

STARTCHAR yacute
ENCODING 253
SWIDTH 580 0
DWIDTH 10 0
BBX 8 16 1 -3
BITMAP
1C
18
30
00
C3
C3
C3
66
66
66
3C
3C
18
30
30
60
ENDCHAR

STARTCHAR tcommaaccent
ENCODING 254
SWIDTH 300 0
DWIDTH 4 0
BBX 4 15 0 -3
BITMAP
60
60
60
F0
F0
60
60
60
60
60
60
60
00
60
C0
ENDCHAR

STARTCHAR dotaccent
ENCODING 255
SWIDTH 280 0
DWIDTH 5 0
BBX 2 2 1 11
BITMAP
C0
C0
ENDCHAR
ENDFONT
